<?xml version="1.0" encoding="utf-8"?>
<!-- Generator: Adobe Illustrator 24.3.0, SVG Export Plug-In . SVG Version: 6.00 Build 0)  -->
<svg version="1.1" id="Layer_1" xmlns="http://www.w3.org/2000/svg" xmlns:xlink="http://www.w3.org/1999/xlink" x="0px" y="0px"
	 viewBox="0 0 720 1448" style="enable-background:new 0 0 720 1448;" xml:space="preserve">
<style type="text/css">
	.st0{fill:#FFFFFF;}
	.st1{fill:url(#SVGID_1_);stroke:#FAFF82;stroke-miterlimit:10;}
	.st2{fill:#0AFFA0;}
	.st3{fill:#00E17E;}
	.st4{fill:#5CD5FF;}
</style>
<rect x="-0.5" y="-0.5" class="st0" width="720" height="1448"/>
<linearGradient id="SVGID_1_" gradientUnits="userSpaceOnUse" x1="359" y1="861.25" x2="359" y2="141.25">
	<stop  offset="0" style="stop-color:#469AFF"/>
	<stop  offset="0.3551" style="stop-color:#61C5FF"/>
	<stop  offset="0.4819" style="stop-color:#6CD5FF"/>
</linearGradient>
<path class="st1" d="M719,395.6c-109.2-76.3-242.1-121.1-385.5-121.1c-121.7,0-235.9,32.3-334.5,88.7V1448h720V395.6z"/>
<path class="st2" d="M719,1448v-317.2c-11.4-55.9-27.4-111-48-164.6l-66.7-173.5c-2.3-13.7-16.5-12.5-16.4-2.7l29.3,108
	c46.2,170.2,47.8,348.9,5.6,519h-43.2l13.2-123.2c2.2-20.2,3.4-40.6,3.7-60.9l5.9-378.7c-1.8-10.4-12.5-9.4-12.4-2.1l-31.5,336
	c-5,53.6-16.5,106.5-34.3,157.4l-24.9,71.5h-23.1l-11.7-137.2c-6.2-72.1-6.4-144.5-0.8-216.6l21-271.2c-2.2-12.8-15.4-11.6-15.3-2.5
	l-62.2,346.9c-5,28-9.1,56.1-12.4,84.3L372.5,1417h-130l2-18.4c8.3-77.5,2.9-155.8-16.1-231.4l-96.1-382.4
	c-1.8-10.4-12.5-9.4-12.4-2.1l60.8,332.8c18.3,100.5,13.1,203.7-15.1,301.5H42.4l-3.7-28.7c-16.1-126.7-12-255.2,12.3-380.7
	l56.2-290.2c-2.3-13.6-16.3-12.3-16.2-2.7l-92,331.8V1448h47.3l-1.5-12h114.9c-1.3,4-2.6,8-4,12h83.3l1.3-12h129.9l-1.4,12h110
	l-1-12h14.9l-4.2,12h87.7l1.3-12h40.3c-1.1,4-2.2,8-3.3,12H719z"/>
<path class="st3" d="M677.4,1436l0.6-5.8c12.7-119.3-3-239.9-45.6-351.8l-48.4-127c-1.7-10.1-12-9.1-11.9-2l21.3,79.1
	c36,133.8,34.7,274.8-3.3,407.5h-90.2l12.3-115.3c1.6-14.8,2.5-29.7,2.7-44.6l4.3-277.2c-1.3-7.6-9-6.9-9-1.5l-22.9,245.9
	c-3.7,39.3-12,78-24.9,115.2l-26.7,77.4H378l-11.4-135c-4.5-52.7-4.7-105.8-0.6-158.6l15.3-198.5c-1.6-9.4-11.1-8.5-11.1-1.9
	L324.9,1196c-3.6,20.5-6.6,41-9,61.7l-5.8,51.4c-2.1-26.7-6.4-53.2-12.9-79.3L227.5,950c-1.3-7.6-9-6.9-9-1.5l44.1,243.6
	c14.8,81.6,8.5,165.6-18.2,243.9H130.2l-6.1-48.6c-11.7-92.8-8.7-186.8,8.9-278.7l40.8-212.4c-1.7-9.9-11.8-9-11.8-2l-81.2,295.3
	c-11.5,41.9-19.9,84.6-25.2,127.7L41.1,1436H0v12h39.7h92h108.6H379h52.5h67.1h88h89.7H719v-12H677.4z"/>
<path class="st0" d="M297.5,369h-106c-41.7,0-75.5-33.8-75.5-75.5v0c0-41.7,33.8-75.5,75.5-75.5h106c41.7,0,75.5,33.8,75.5,75.5v0
	C373,335.2,339.2,369,297.5,369z"/>
<path class="st0" d="M628,514H517c-26,0-47-21-47-47v0c0-26,21-47,47-47h111c26,0,47,21,47,47v0C675,493,654,514,628,514z"/>
<path class="st0" d="M310,614H129c-27.6,0-50-22.4-50-50v0c0-27.6,22.4-50,50-50h181c27.6,0,50,22.4,50,50v0
	C360,591.6,337.6,614,310,614z"/>
<circle class="st4" cx="648.5" cy="274.5" r="36.5"/>
<circle class="st4" cx="172.5" cy="267.5" r="26.5"/>
</svg>
