<?xml version="1.0" encoding="utf-8"?>
<!-- Generator: Adobe Illustrator 24.3.0, SVG Export Plug-In . SVG Version: 6.00 Build 0)  -->
<svg version="1.1" id="Layer_1" xmlns="http://www.w3.org/2000/svg" xmlns:xlink="http://www.w3.org/1999/xlink" x="0px" y="0px"
	 viewBox="0 0 2040.9 4195.3" style="enable-background:new 0 0 2040.9 4195.3;" xml:space="preserve">
<style type="text/css">
	.st0{fill:url(#SVGID_1_);}
	.st1{fill:#F2F2F2;}
	.st2{fill:#8AC911;}
	.st3{fill:#9BD6EC;}
</style>
<radialGradient id="SVGID_1_" cx="1020.5714" cy="2097.9048" r="3057.0762" gradientUnits="userSpaceOnUse">
	<stop  offset="0" style="stop-color:#862670"/>
	<stop  offset="1" style="stop-color:#00A5E6"/>
</radialGradient>
<rect x="0.1" y="0.3" class="st0" width="2040.9" height="4195.3"/>
<path class="st1" d="M132.4,3000.2c0,93.4,75.7,169.2,169.2,169.2H1730c93.4,0,169.2-75.7,169.2-169.2V1424.4H132.4V3000.2z"/>
<path class="st2" d="M1730,1026.5h-18l-2.6-21.6c-2.7-22.1-7-43.9-12.9-65.3l-41.5-151c0-3.6-5.1-4.1-6,1l20.8,108.6
	c8.1,42.3,10.1,85.4,6.1,128.2H1603c-4.7-28.3-4.6-57.2,0.5-85.6l22.6-124.5c0-2.7-3.9-3.1-4.6,0.8l-35.7,143.1
	c-3.3,13.3-5.5,26.9-6.6,40.5l-3-26.3c-1.2-10.6-2.7-21.1-4.6-31.5L1548.6,813c0-3.4-4.8-3.8-5.7,1l7.8,101.5
	c2.1,27,2,54.1-0.3,81.1l-2.5,29.9h-46.3l-0.2-0.5c-6.6-19-10.8-38.8-12.7-58.9L1477,841.4c0-2.7-3.9-3.1-4.6,0.8l2.2,141.7
	c0.1,7.6,0.6,15.2,1.4,22.8l2.1,19.9h-51c-1.1-6.3-2.1-12.6-2.9-18.9c0.6-21.8-0.3-43.5-2.8-65.1c1.2-28.7,5.5-57.3,13-85.3
	l10.9-40.4c0-3.6-5.2-4.1-6.1,1l-24.8,64.9c-0.8,2.2-1.7,4.4-2.5,6.7c-4.5-18.8-10.2-37.4-17.1-55.5l-28.7-75.2c-1-6-7.1-5.4-7-1.2
	l12.6,46.8c19.6,72.8,20.5,149.2,3,222.1h-56.4l5.2-49.2c0.9-8.8,1.5-17.6,1.6-26.4l2.5-164.1c-0.8-4.5-5.4-4.1-5.3-0.9l-13.5,145.6
	c-2.2,23.2-7.1,46.1-14.7,68.2l-9.2,26.8h-42.3l-5.2-60.8c-2.6-31.2-2.8-62.6-0.4-93.8l9-117.5c-0.9-5.5-6.6-5-6.6-1.1l-26.7,150.3
	c-2.2,12.1-3.9,24.3-5.3,36.5l-3.4,30.4c-1.3-15.8-3.8-31.5-7.7-46.9l-41.3-165.7c-0.8-4.5-5.4-4.1-5.3-0.9l26.1,144.2
	c7.6,41.7,5.8,84.5-5,125.3h-75.8l-1.2-9.7c-6.9-54.9-5.2-110.6,5.3-164.9l24.1-125.7c-1-5.9-7-5.3-7-1.2l-48,174.8
	c-2.1,7.6-4,15.3-5.8,23.1c-2.9-14.7-6.3-29.2-10.3-43.6l-56.7-206.1c0.1-4.9-7-5.6-8.2,1.4l28.5,148.3
	c12.3,64.1,14.4,129.7,6.2,194.5l-1.2,9.3h-90.2c-12.3-47.5-14.1-97.2-5.4-145.6l30.8-170c0-3.8-5.4-4.2-6.3,1.1l-48.7,195.4
	c-4.5,18.2-7.5,36.7-9,55.3l-4.1-35.9c-1.6-14.4-3.7-28.8-6.3-43.1l-31.5-177.2c0.1-4.6-6.6-5.2-7.7,1.3l10.7,138.6
	c2.8,36.8,2.7,73.9-0.4,110.7l-5.9,69.6h-50.8L786,997.1c-1.5-4.3-2.9-8.7-4.2-13.1c-1.8-33.6-7.3-67-16.1-99.5l-13-139.5
	c0-3.8-5.4-4.2-6.3,1.1l1.3,85L721,760.9c-1.1-6.3-7.5-5.7-7.4-1.3l13.3,49.5c19.2,71.2,21.4,145.6,7.1,217.4h-43.4
	c-6.3-26.6-10.4-53.6-12.5-80.7l1.5-98.4c2.9-27.1,8-54.1,15.1-80.7l14.8-55.2c0.1-5-7.1-5.6-8.3,1.4l-33.8,88.6
	c-27.3,71.7-38.8,148.5-33.6,225h-44.9l-4-46.8c-2.8-33-2.9-66.2-0.4-99.2l9.6-124.3c-1-5.9-7-5.3-6.9-1.2l-28.3,158.9
	c-2.3,12.8-4.2,25.7-5.6,38.6l-3.6,32.2c-1.3-16.7-4-33.3-8.1-49.6l-43.7-175.2c-0.8-4.8-5.7-4.3-5.6-0.9l27.6,152.5
	c6.9,38.2,6.5,77.2-1.2,115h-86.4c-6.3-55.7-4.1-112.1,6.4-167.1l25.5-133c-1.1-6.2-7.4-5.6-7.4-1.2L406,910
	c-7.2,26.2-12.5,52.9-15.8,80l-4.5,36.5h-84.2c-93.4,0-169.2,75.7-169.2,169.2v228.7h1766.8v-228.7
	C1899.2,1102.2,1823.5,1026.5,1730,1026.5z"/>
<path class="st3" d="M885.1,472.7L852.6,529c-15.5,26.8,3.9,60.3,34.8,60.3h0c28.9,0,46.9-31.3,32.5-56.3L885.1,472.7z"/>
<path class="st3" d="M1223.2,164.3L1156.3,280c-29.7,51.5,7.4,115.8,66.8,115.8h0c59.4,0,96.5-64.3,66.8-115.8L1223.2,164.3z"/>
<path class="st3" d="M607.8,312l-63.2,109.5c-28.1,48.7,7,109.5,63.2,109.5h0c56.2,0,91.3-60.8,63.2-109.5L607.8,312z"/>
<path class="st3" d="M1576,363.1l-62.2,107.8c-27.7,47.9,6.9,107.8,62.2,107.8h0c55.3,0,89.9-59.9,62.2-107.8L1576,363.1z"/>
</svg>
