<?xml version="1.0" encoding="utf-8"?>
<!-- Generator: Adobe Illustrator 24.3.0, SVG Export Plug-In . SVG Version: 6.00 Build 0)  -->
<svg version="1.1" id="Layer_1" xmlns="http://www.w3.org/2000/svg" xmlns:xlink="http://www.w3.org/1999/xlink" x="0px" y="0px"
	 viewBox="0 0 2040.9 4195.3" style="enable-background:new 0 0 2040.9 4195.3;" xml:space="preserve">
<style type="text/css">
	.st0{fill:#E3E3E3;}
	.st1{fill:url(#SVGID_1_);stroke:url(#SVGID_2_);stroke-miterlimit:10;}
	.st2{fill:url(#SVGID_3_);stroke:url(#SVGID_4_);stroke-miterlimit:10;}
	.st3{fill:url(#SVGID_5_);stroke:url(#SVGID_6_);stroke-miterlimit:10;}
	.st4{fill:url(#SVGID_7_);stroke:url(#SVGID_8_);stroke-miterlimit:10;}
	.st5{fill:url(#SVGID_9_);stroke:url(#SVGID_10_);stroke-miterlimit:10;}
	.st6{fill:url(#SVGID_11_);stroke:url(#SVGID_12_);stroke-miterlimit:10;}
</style>
<path class="st0" d="M1890.3,3849.7h-46.8c-14.7,0-26.6-11.9-26.6-26.6v-108.8c0-20.5-16.6-37.1-37.1-37.1h0
	c-20.5,0-37.1,16.6-37.1,37.1v108.8c0,14.7-11.9,26.6-26.6,26.6H303.7c-14.7,0-26.6-11.9-26.6-26.6v-164.4
	c0-27.6-22.3-49.9-49.9-49.9h0c-27.6,0-49.9,22.3-49.9,49.9v164.4c0,14.7-11.9,26.6-26.6,26.6h0C67.5,3849.7,0,3917.2,0,4000.4
	v195.9h2040.9v-195.9C2040.9,3917.2,1973.5,3849.7,1890.3,3849.7z"/>
<linearGradient id="SVGID_1_" gradientUnits="userSpaceOnUse" x1="2040.9448" y1="307.5136" x2="2040.9448" y2="4324.3867">
	<stop  offset="0" style="stop-color:#6EC6D9"/>
	<stop  offset="1" style="stop-color:#3F7EC1"/>
</linearGradient>
<linearGradient id="SVGID_2_" gradientUnits="userSpaceOnUse" x1="2040.9448" y1="245.8363" x2="2040.9448" y2="4441.1118">
	<stop  offset="0" style="stop-color:#6AC6DB"/>
	<stop  offset="1" style="stop-color:#000000"/>
</linearGradient>
<line class="st1" x1="2040.9" y1="245.8" x2="2040.9" y2="4441.1"/>
<linearGradient id="SVGID_3_" gradientUnits="userSpaceOnUse" x1="2.883530e-05" y1="391.6982" x2="2.883571e-05" y2="4408.5713">
	<stop  offset="0" style="stop-color:#6EC6D9"/>
	<stop  offset="1" style="stop-color:#3F7EC1"/>
</linearGradient>
<linearGradient id="SVGID_4_" gradientUnits="userSpaceOnUse" x1="2.883529e-05" y1="330.0209" x2="2.883572e-05" y2="4525.2964">
	<stop  offset="0" style="stop-color:#6AC6DB"/>
	<stop  offset="1" style="stop-color:#000000"/>
</linearGradient>
<line class="st2" x1="0" y1="4525.3" x2="0" y2="330"/>
<linearGradient id="SVGID_5_" gradientUnits="userSpaceOnUse" x1="2040.9448" y1="308.5137" x2="2040.9448" y2="4325.3867">
	<stop  offset="0" style="stop-color:#6EC6D9"/>
	<stop  offset="1" style="stop-color:#3F7EC1"/>
</linearGradient>
<linearGradient id="SVGID_6_" gradientUnits="userSpaceOnUse" x1="2040.9448" y1="246.8364" x2="2040.9448" y2="4442.1118">
	<stop  offset="0" style="stop-color:#6AC6DB"/>
	<stop  offset="1" style="stop-color:#000000"/>
</linearGradient>
<line class="st3" x1="2040.9" y1="246.8" x2="2040.9" y2="4442.1"/>
<linearGradient id="SVGID_7_" gradientUnits="userSpaceOnUse" x1="2.883530e-05" y1="392.6982" x2="2.883571e-05" y2="4409.5713">
	<stop  offset="0" style="stop-color:#6EC6D9"/>
	<stop  offset="1" style="stop-color:#3F7EC1"/>
</linearGradient>
<linearGradient id="SVGID_8_" gradientUnits="userSpaceOnUse" x1="2.883529e-05" y1="331.021" x2="2.883572e-05" y2="4526.2964">
	<stop  offset="0" style="stop-color:#6AC6DB"/>
	<stop  offset="1" style="stop-color:#000000"/>
</linearGradient>
<line class="st4" x1="0" y1="4526.3" x2="0" y2="331"/>
<linearGradient id="SVGID_9_" gradientUnits="userSpaceOnUse" x1="2040.9448" y1="309.5137" x2="2040.9448" y2="4326.3867">
	<stop  offset="0" style="stop-color:#6EC6D9"/>
	<stop  offset="1" style="stop-color:#3F7EC1"/>
</linearGradient>
<linearGradient id="SVGID_10_" gradientUnits="userSpaceOnUse" x1="2040.9448" y1="247.8364" x2="2040.9448" y2="4443.1118">
	<stop  offset="0" style="stop-color:#6AC6DB"/>
	<stop  offset="1" style="stop-color:#000000"/>
</linearGradient>
<line class="st5" x1="2040.9" y1="247.8" x2="2040.9" y2="4443.1"/>
<linearGradient id="SVGID_11_" gradientUnits="userSpaceOnUse" x1="2.883530e-05" y1="393.6983" x2="2.883571e-05" y2="4410.5713">
	<stop  offset="0" style="stop-color:#6EC6D9"/>
	<stop  offset="1" style="stop-color:#3F7EC1"/>
</linearGradient>
<linearGradient id="SVGID_12_" gradientUnits="userSpaceOnUse" x1="2.883529e-05" y1="332.021" x2="2.883572e-05" y2="4527.2964">
	<stop  offset="0" style="stop-color:#6AC6DB"/>
	<stop  offset="1" style="stop-color:#000000"/>
</linearGradient>
<line class="st6" x1="0" y1="4527.3" x2="0" y2="332"/>
</svg>
