<?xml version="1.0" encoding="utf-8"?>
<!-- Generator: Adobe Illustrator 24.3.0, SVG Export Plug-In . SVG Version: 6.00 Build 0)  -->
<svg version="1.1" id="Layer_1" xmlns="http://www.w3.org/2000/svg" xmlns:xlink="http://www.w3.org/1999/xlink" x="0px" y="0px"
	 viewBox="0 0 2040.9 4195.3" style="enable-background:new 0 0 2040.9 4195.3;" xml:space="preserve">
<style type="text/css">
	.st0{fill:url(#SVGID_1_);stroke:url(#SVGID_2_);stroke-miterlimit:10;}
	.st1{fill:#E3E3E3;}
	.st2{fill:url(#SVGID_3_);stroke:url(#SVGID_4_);stroke-miterlimit:10;}
	.st3{fill:url(#SVGID_5_);stroke:url(#SVGID_6_);stroke-miterlimit:10;}
	.st4{fill:url(#SVGID_7_);stroke:url(#SVGID_8_);stroke-miterlimit:10;}
	.st5{fill:url(#SVGID_9_);stroke:url(#SVGID_10_);stroke-miterlimit:10;}
	.st6{fill:url(#SVGID_11_);stroke:url(#SVGID_12_);stroke-miterlimit:10;}
	.st7{fill:url(#SVGID_13_);stroke:url(#SVGID_14_);stroke-miterlimit:10;}
</style>
<linearGradient id="SVGID_1_" gradientUnits="userSpaceOnUse" x1="1020.4724" y1="58.322" x2="1020.4724" y2="3856.6648">
	<stop  offset="0" style="stop-color:#6EC6D9"/>
	<stop  offset="1" style="stop-color:#3F7EC1"/>
</linearGradient>
<linearGradient id="SVGID_2_" gradientUnits="userSpaceOnUse" x1="1020.4724" y1="-0.4999" x2="1020.4724" y2="3967.5396">
	<stop  offset="0" style="stop-color:#6AC6DB"/>
	<stop  offset="1" style="stop-color:#000000"/>
</linearGradient>
<rect x="0" y="0" class="st0" width="2040.9" height="3967"/>
<path class="st1" d="M1890.3,3649.7h-46.8c-14.7,0-26.6-11.9-26.6-26.6v-108.8c0-20.5-16.6-37.1-37.1-37.1h0
	c-20.5,0-37.1,16.6-37.1,37.1v108.8c0,14.7-11.9,26.6-26.6,26.6H303.7c-14.7,0-26.6-11.9-26.6-26.6v-164.4
	c0-27.6-22.3-49.9-49.9-49.9h0c-27.6,0-49.9,22.3-49.9,49.9v164.4c0,14.7-11.9,26.6-26.6,26.6h0C67.5,3649.7,0,3717.2,0,3800.4
	v395.9h2040.9v-395.9C2040.9,3717.2,1973.5,3649.7,1890.3,3649.7z"/>
<linearGradient id="SVGID_3_" gradientUnits="userSpaceOnUse" x1="2040.9448" y1="107.501" x2="2040.9448" y2="4124.374">
	<stop  offset="0" style="stop-color:#6EC6D9"/>
	<stop  offset="1" style="stop-color:#3F7EC1"/>
</linearGradient>
<linearGradient id="SVGID_4_" gradientUnits="userSpaceOnUse" x1="2040.9448" y1="45.8237" x2="2040.9448" y2="4241.0991">
	<stop  offset="0" style="stop-color:#6AC6DB"/>
	<stop  offset="1" style="stop-color:#000000"/>
</linearGradient>
<line class="st2" x1="2040.9" y1="45.8" x2="2040.9" y2="4241.1"/>
<linearGradient id="SVGID_5_" gradientUnits="userSpaceOnUse" x1="2.883530e-05" y1="191.6856" x2="2.883571e-05" y2="4208.5586">
	<stop  offset="0" style="stop-color:#6EC6D9"/>
	<stop  offset="1" style="stop-color:#3F7EC1"/>
</linearGradient>
<linearGradient id="SVGID_6_" gradientUnits="userSpaceOnUse" x1="2.883529e-05" y1="130.0083" x2="2.883572e-05" y2="4325.2837">
	<stop  offset="0" style="stop-color:#6AC6DB"/>
	<stop  offset="1" style="stop-color:#000000"/>
</linearGradient>
<line class="st3" x1="0" y1="4325.3" x2="0" y2="130"/>
<linearGradient id="SVGID_7_" gradientUnits="userSpaceOnUse" x1="2040.9448" y1="108.5011" x2="2040.9448" y2="4125.374">
	<stop  offset="0" style="stop-color:#6EC6D9"/>
	<stop  offset="1" style="stop-color:#3F7EC1"/>
</linearGradient>
<linearGradient id="SVGID_8_" gradientUnits="userSpaceOnUse" x1="2040.9448" y1="46.8238" x2="2040.9448" y2="4242.0991">
	<stop  offset="0" style="stop-color:#6AC6DB"/>
	<stop  offset="1" style="stop-color:#000000"/>
</linearGradient>
<line class="st4" x1="2040.9" y1="46.8" x2="2040.9" y2="4242.1"/>
<linearGradient id="SVGID_9_" gradientUnits="userSpaceOnUse" x1="2.883530e-05" y1="192.6857" x2="2.883571e-05" y2="4209.5586">
	<stop  offset="0" style="stop-color:#6EC6D9"/>
	<stop  offset="1" style="stop-color:#3F7EC1"/>
</linearGradient>
<linearGradient id="SVGID_10_" gradientUnits="userSpaceOnUse" x1="2.883529e-05" y1="131.0083" x2="2.883572e-05" y2="4326.2837">
	<stop  offset="0" style="stop-color:#6AC6DB"/>
	<stop  offset="1" style="stop-color:#000000"/>
</linearGradient>
<line class="st5" x1="0" y1="4326.3" x2="0" y2="131"/>
<linearGradient id="SVGID_11_" gradientUnits="userSpaceOnUse" x1="2040.9448" y1="109.5011" x2="2040.9448" y2="4126.374">
	<stop  offset="0" style="stop-color:#6EC6D9"/>
	<stop  offset="1" style="stop-color:#3F7EC1"/>
</linearGradient>
<linearGradient id="SVGID_12_" gradientUnits="userSpaceOnUse" x1="2040.9448" y1="47.8238" x2="2040.9448" y2="4243.0991">
	<stop  offset="0" style="stop-color:#6AC6DB"/>
	<stop  offset="1" style="stop-color:#000000"/>
</linearGradient>
<line class="st6" x1="2040.9" y1="47.8" x2="2040.9" y2="4243.1"/>
<linearGradient id="SVGID_13_" gradientUnits="userSpaceOnUse" x1="2.883530e-05" y1="193.6857" x2="2.883571e-05" y2="4210.5586">
	<stop  offset="0" style="stop-color:#6EC6D9"/>
	<stop  offset="1" style="stop-color:#3F7EC1"/>
</linearGradient>
<linearGradient id="SVGID_14_" gradientUnits="userSpaceOnUse" x1="2.883529e-05" y1="132.0084" x2="2.883572e-05" y2="4327.2837">
	<stop  offset="0" style="stop-color:#6AC6DB"/>
	<stop  offset="1" style="stop-color:#000000"/>
</linearGradient>
<line class="st7" x1="0" y1="4327.3" x2="0" y2="132"/>
<path class="st1" d="M1829.6,418.3H211.3c-48,0-86.9-38.9-86.9-86.9V169.9c0-48,38.9-86.9,86.9-86.9h1618.3
	c48,0,86.9,38.9,86.9,86.9v161.5C1916.6,379.4,1877.6,418.3,1829.6,418.3z"/>
</svg>
