<?xml version="1.0" encoding="utf-8"?>
<!-- Generator: Adobe Illustrator 24.3.0, SVG Export Plug-In . SVG Version: 6.00 Build 0)  -->
<svg version="1.1" id="Layer_1" xmlns="http://www.w3.org/2000/svg" xmlns:xlink="http://www.w3.org/1999/xlink" x="0px" y="0px"
	 viewBox="0 0 2040.9 4195.3" style="enable-background:new 0 0 2040.9 4195.3;" xml:space="preserve">
<style type="text/css">
	.st0{fill:url(#SVGID_1_);stroke:#1D1D1B;stroke-miterlimit:10;}
	.st1{fill:#FFFFFF;stroke:#B1B1B1;stroke-width:10;stroke-miterlimit:10;}
	.st2{fill:#FFFFFF;stroke:#868686;stroke-width:10;stroke-miterlimit:10;}
</style>
<linearGradient id="SVGID_1_" gradientUnits="userSpaceOnUse" x1="1020.4724" y1="67.3804" x2="1020.4724" y2="4209.5005">
	<stop  offset="0" style="stop-color:#1BFFD7"/>
	<stop  offset="1" style="stop-color:#E0FFBD"/>
</linearGradient>
<rect class="st0" width="2040.9" height="4195.3"/>
<path class="st1" d="M1760.4,442.6H280.5c-76.8,0-139-62.2-139-139v0c0-76.8,62.2-139,139-139h1479.9c76.8,0,139,62.2,139,139v0
	C1899.4,380.4,1837.2,442.6,1760.4,442.6z"/>
<path class="st2" d="M1680,1640.2H339.8c-85,0-154-68.9-154-154V904.5c0-85,68.9-154,154-154H1680c85,0,154,68.9,154,154v581.7
	C1834,1571.3,1765.1,1640.2,1680,1640.2z"/>
<g>
	<g>
		<path class="st2" d="M1336.1,1096.6v311.5c0,35.8,29,64.9,64.9,64.9h63.8c16.7,0,30.3-13.6,30.3-30.3v-344.3
			c0-16.7-13.6-30.3-30.3-30.3h-100.2C1348.9,1068,1336.1,1080.8,1336.1,1096.6z"/>
		<path class="st2" d="M1539.3,1098.3v344.3c0,16.7,13.6,30.3,30.3,30.3h63.8c35.8,0,64.9-29,64.9-64.9v-311.5
			c0-15.7-12.8-28.5-28.5-28.5h-100.2C1552.8,1068,1539.3,1081.6,1539.3,1098.3z"/>
	</g>
	<path class="st2" d="M1461.6,985.1h-131.7c-12.3,0-22.3,10-22.3,22.3v15.2c0,12.3,10,22.3,22.3,22.3h374.5
		c12.3,0,22.3-10,22.3-22.3v-15.2c0-12.3-10-22.3-22.3-22.3h-131.7H1461.6z"/>
	<path class="st2" d="M1537.2,935.2l5.2,5.2c11.1,11.1,11.1,29,0,40.1l-5.2,5.2c-11.1,11.1-29,11.1-40.1,0l-5.2-5.2
		c-11.1-11.1-11.1-29,0-40.1l5.2-5.2C1508.2,924.1,1526.2,924.1,1537.2,935.2z"/>
	<path class="st2" d="M1631.6,987.9l-53.3,14.3c-9.8,2.6-20.2-0.2-27.4-7.3l-14.3-14.3c-11.1-11.1-11.1-29,0-40.1l14.3-14.3
		c7.2-7.2,17.6-10,27.4-7.3l53.3,14.3C1659.6,940.6,1659.6,980.4,1631.6,987.9z"/>
	<path class="st2" d="M1402.2,933.1l53.3-14.3c9.8-2.6,20.2,0.2,27.4,7.3l14.3,14.3c11.1,11.1,11.1,29,0,40.1l-14.3,14.3
		c-7.2,7.2-17.6,10-27.4,7.3l-53.3-14.3C1374.2,980.4,1374.2,940.6,1402.2,933.1z"/>
</g>
<g>
	<g>
	</g>
</g>
</svg>
